<svg xmlns="http://www.w3.org/2000/svg" xmlns:xlink="http://www.w3.org/1999/xlink" version="1.1" x="0px" y="0px" width="96px" height="96px" viewBox="0 0 96 96" enable-background="new 0 0 96 96" xml:space="preserve"><path d="M71.156 27.44c0.151-0.805-0.264-1.608-1.006-1.95c-3.933-1.815-9.204-2.857-14.46-2.857 c-17.731 0-32.158 14.426-32.158 32.159c0 11.8 7.9 17.9 15.6 17.933c7.016 0 12.667-2.813 17.172-8.572 c0.486 2.1 1.4 3.9 2.8 5.27c2.028 2.1 4.9 3.3 8.1 3.303c12.223 0 24.596-11.09 24.596-32.286 c0-22.856-16.069-38.82-39.078-38.82c-27.684 0-48.561 21.922-48.561 50.996c0 24.2 17.1 41.8 40.6 41.8 c9.358 0 16.65-1.644 23.644-5.332c0.793-0.419 1.154-1.36 0.84-2.201l-2.05-5.512c-0.182-0.487-0.568-0.871-1.058-1.053 c-0.489-0.179-1.033-0.135-1.488 0.118c-4.964 2.785-11.354 4.259-18.478 4.259c-18.632 0-31.15-13.188-31.15-32.816 c0-23.619 15.418-40.762 36.661-40.762c18.028 0 29.2 11.5 29.2 30.125c0 13.384-6.184 21.669-12 21.7 c-1.115-0.035-1.609-0.498-1.883-0.842c-0.751-0.943-1.786-3.678-0.262-11.399L71.156 27.44z M54.152 33 c1.514 0 3 0.1 4.3 0.43L56.11 46.277c-1.309 7.378-7.656 15.955-13.877 15.955c-6.022 0-6.673-5.563-6.673-7.954 C35.56 42.7 44.1 33 54.2 32.996z"/></svg>