<svg xmlns="http://www.w3.org/2000/svg" xmlns:xlink="http://www.w3.org/1999/xlink" version="1.2" baseProfile="tiny" x="0px" y="0px" width="24px" height="24px" viewBox="0 0 24 24" xml:space="preserve"><path d="M6.002 15.999C4.895 16 4 16.9 4 18c0 1.1 0.9 2 2 1.999C7.105 20 8 19.1 8 18 C8.002 16.9 7.1 16 6 15.999z"/><path d="M6 4C4.896 4 4 4.9 4 6s0.896 2 2 2c5.514 0 10 4.5 10 10c0 1.1 0.9 2 2 2s2-0.896 2-2C20 10.3 13.7 4 6 4z"/><path d="M6 10c-1.104 0-2 0.896-2 2s0.896 2 2 2c2.205 0 4 1.8 4 4c0 1.1 0.9 2 2 2s2-0.896 2-2C14 13.6 10.4 10 6 10z"/></svg>